# xmcd
#
# Track frame offsets: 
#        150
#        10069
#        20525
#        41058
#        57231
#
# Disc length: 960 seconds
#
# Revision: 0
# Processed by: cddbd v1.5.2PL0 Copyright (c) Steve Scherf et al.
# Submitted via: ExactAudioCopy v0.99pb3
#
DISCID=3603be05
DTITLE=Elvis Presley - Discover Elvis Presley
DYEAR=2007
DGENRE=Pop
TTITLE0=Heartbreak Hotel
TTITLE1=Hound Dog
TTITLE2=Suspicious Minds
TTITLE3=Fever
TTITLE4=Kentucky Rain
EXTD=
EXTT0=
EXTT1=
EXTT2=
EXTT3=
EXTT4=
PLAYORDER=
